<?xml version="1.0" standalone="no"?>
<!DOCTYPE svg PUBLIC "-//W3C//DTD SVG 20010904//EN"
 "http://www.w3.org/TR/2001/REC-SVG-20010904/DTD/svg10.dtd">
<svg version="1.0" xmlns="http://www.w3.org/2000/svg"
 width="360.000000pt" height="360.000000pt" viewBox="0 0 360.000000 360.000000"
 preserveAspectRatio="xMidYMid meet">
<metadata>
Created by potrace 1.12, written by Peter Selinger 2001-2015
</metadata>
<g transform="translate(0.000000,360.000000) scale(0.100000,-0.100000)"
fill="#000000" stroke="none">
<path d="M1830 3215 c-73 3 -141 0 -187 -9 -39 -8 -95 -22 -125 -31 -29 -9
-86 -35 -126 -56 -41 -21 -99 -59 -131 -83 -31 -24 -84 -73 -116 -108 -33 -35
-77 -89 -98 -121 -21 -31 -51 -85 -67 -119 -16 -35 -39 -99 -51 -143 -20 -70
-23 -112 -27 -347 l-4 -268 -46 0 c-26 0 -65 -9 -87 -19 -22 -10 -50 -29 -62
-42 -12 -13 -29 -41 -38 -61 -13 -32 -15 -119 -15 -648 0 -529 2 -616 15 -648
9 -20 26 -48 38 -61 12 -13 40 -32 62 -42 38 -18 89 -19 1035 -19 946 0 997 1
1035 19 22 10 50 29 62 42 12 13 29 41 38 61 13 32 15 119 15 650 0 575 -2
616 -19 653 -10 22 -29 50 -42 62 -13 12 -41 29 -61 38 -21 8 -57 15 -82 15
l-44 0 -4 268 c-4 230 -8 277 -26 343 -11 42 -34 106 -50 142 -17 36 -48 92
-69 124 -21 32 -68 90 -106 129 -37 40 -101 95 -142 123 -41 29 -103 65 -137
81 -35 16 -99 39 -143 50 -50 13 -123 23 -195 25z m-35 -386 c39 1 97 -6 130
-14 32 -9 84 -30 116 -46 32 -17 86 -59 119 -92 39 -39 73 -86 95 -132 19 -38
40 -94 45 -124 6 -29 10 -152 10 -272 l0 -219 -510 0 -510 0 0 219 c0 120 4
243 10 272 5 30 26 86 45 124 22 46 56 93 95 132 33 33 87 75 119 92 32 17 82
37 112 45 30 8 86 15 124 15z"/>
</g>
</svg>
