<?xml version="1.0" standalone="no"?>
<!DOCTYPE svg PUBLIC "-//W3C//DTD SVG 20010904//EN"
 "http://www.w3.org/TR/2001/REC-SVG-20010904/DTD/svg10.dtd">
<svg version="1.0" xmlns="http://www.w3.org/2000/svg"
 width="360.000000pt" height="360.000000pt" viewBox="0 0 360.000000 360.000000"
 preserveAspectRatio="xMidYMid meet">
<metadata>
Created by potrace 1.12, written by Peter Selinger 2001-2015
</metadata>
<g transform="translate(0.000000,360.000000) scale(0.100000,-0.100000)"
fill="#000000" stroke="none">
<path d="M1820 3345 c-73 3 -141 0 -187 -9 -39 -8 -95 -22 -125 -31 -29 -10
-82 -32 -118 -50 -36 -18 -92 -53 -126 -79 -34 -25 -90 -77 -126 -115 -36 -38
-80 -89 -97 -115 -18 -25 -47 -79 -66 -119 -19 -39 -45 -108 -57 -152 -20 -75
-22 -105 -26 -477 l-3 -398 -45 0 c-25 0 -61 -7 -82 -15 -20 -9 -48 -26 -61
-38 -13 -12 -32 -40 -42 -62 -17 -37 -19 -78 -19 -653 0 -531 2 -618 15 -650
9 -20 26 -48 38 -61 12 -13 40 -32 62 -42 38 -18 89 -19 1040 -19 951 0 1002
1 1040 19 22 10 50 29 62 42 12 13 29 41 38 61 13 32 15 119 15 650 0 575 -2
616 -19 653 -10 22 -29 50 -42 62 -13 12 -41 29 -61 38 -33 13 -134 15 -793
15 l-755 0 0 353 c0 279 3 365 15 416 9 35 29 90 46 122 17 32 58 85 91 117
32 33 85 74 117 91 32 16 84 37 116 46 33 8 89 15 125 15 36 0 92 -7 125 -15
32 -9 85 -30 118 -47 33 -18 85 -58 116 -89 31 -31 71 -83 89 -116 17 -33 38
-86 47 -118 8 -33 15 -80 15 -105 0 -25 8 -61 18 -79 10 -19 34 -43 53 -53 25
-13 56 -18 122 -18 54 0 101 6 122 14 19 8 44 30 55 48 19 29 21 43 16 124 -4
51 -15 127 -26 170 -11 44 -34 107 -50 142 -16 34 -46 88 -67 119 -21 32 -67
88 -102 125 -35 37 -93 90 -130 118 -37 27 -101 65 -142 85 -41 19 -110 44
-154 55 -50 13 -123 23 -195 25z"/>
</g>
</svg>
